<svg xmlns="http://www.w3.org/2000/svg" viewBox="0 0 48 48">
 <defs>
  <radialGradient id="petal"><stop stop-color="#ffd66c"/><stop offset=".6" stop-color="#f2b332"/><stop offset="1" stop-color="#dc8d24"/></radialGradient>
  <path id="p" d="M24 25C16 21 13 12 17 6Q20 1 24 6Q28 0 31 7C34 14 29 22 24 25Z"/>
 </defs>
 <g fill="url(#petal)" stroke="#e49a29" stroke-width=".5">
  <use href="#p"/><use href="#p" transform="rotate(45 24 24)"/><use href="#p" transform="rotate(90 24 24)"/><use href="#p" transform="rotate(135 24 24)"/><use href="#p" transform="rotate(180 24 24)"/><use href="#p" transform="rotate(225 24 24)"/><use href="#p" transform="rotate(270 24 24)"/><use href="#p" transform="rotate(315 24 24)"/>
  <g transform="translate(24 24) scale(.64) rotate(22) translate(-24 -24)"><use href="#p"/><use href="#p" transform="rotate(60 24 24)"/><use href="#p" transform="rotate(120 24 24)"/><use href="#p" transform="rotate(180 24 24)"/><use href="#p" transform="rotate(240 24 24)"/><use href="#p" transform="rotate(300 24 24)"/></g>
 </g>
 <path d="m22 18 3 2 4-1-1 4 3 3-5 1-2 4-2-4-4-2 3-2Z" fill="#ffc84c"/>
</svg>
